<svg id="visual" viewBox="0 0 960 540" width="960" height="540" xmlns="http://www.w3.org/2000/svg" xmlns:xlink="http://www.w3.org/1999/xlink" version="1.1"><path d="M0 125L160 98L320 114L480 125L640 125L800 136L960 147L960 0L800 0L640 0L480 0L320 0L160 0L0 0Z" fill="#0f0b7e"></path><path d="M0 168L160 136L320 174L480 179L640 168L800 168L960 195L960 145L800 134L640 123L480 123L320 112L160 96L0 123Z" fill="#16096c"></path><path d="M0 201L160 174L320 212L480 228L640 206L800 206L960 222L960 193L800 166L640 166L480 177L320 172L160 134L0 166Z" fill="#18085b"></path><path d="M0 233L160 217L320 249L480 266L640 260L800 255L960 255L960 220L800 204L640 204L480 226L320 210L160 172L0 199Z" fill="#18074e"></path><path d="M0 363L160 374L320 363L480 406L640 374L800 379L960 352L960 253L800 253L640 258L480 264L320 247L160 215L0 231Z" fill="#18074e"></path><path d="M0 395L160 406L320 395L480 438L640 411L800 411L960 395L960 350L800 377L640 372L480 404L320 361L160 372L0 361Z" fill="#18085b"></path><path d="M0 476L160 465L320 482L480 498L640 503L800 482L960 471L960 393L800 409L640 409L480 436L320 393L160 404L0 393Z" fill="#16096c"></path><path d="M0 541L160 541L320 541L480 541L640 541L800 541L960 541L960 469L800 480L640 501L480 496L320 480L160 463L0 474Z" fill="#0f0b7e"></path></svg>