<?xml version="1.0" encoding="UTF-8" standalone="no"?>
<!DOCTYPE svg PUBLIC "-//W3C//DTD SVG 1.1//EN" "http://www.w3.org/Graphics/SVG/1.1/DTD/svg11.dtd">
<!-- Created with Vectornator (http://vectornator.io/) -->
<svg height="100%" stroke-miterlimit="10" style="fill-rule:nonzero;clip-rule:evenodd;stroke-linecap:round;stroke-linejoin:round;" version="1.1" viewBox="0 0 283.5 283.5" width="100%" xml:space="preserve" xmlns="http://www.w3.org/2000/svg" xmlns:vectornator="http://vectornator.io" xmlns:xlink="http://www.w3.org/1999/xlink">
<defs/>
<g id="Layer-3" vectornator:layerName="Layer 3"/>
<clipPath id="ArtboardFrame">
<rect height="283.5" width="283.5" x="0" y="0"/>
</clipPath>
<g clip-path="url(#ArtboardFrame)" id="Layer-1" vectornator:layerName="Layer 1">
<path d="M633.879 305.781" fill="none" opacity="1" stroke="#000000" stroke-linecap="butt" stroke-linejoin="round" stroke-width="29.6862" vectornator:layerName="Curve 1"/>
<path d="M645.401 582.418" fill="none" opacity="1" stroke="#ff4545" stroke-linecap="butt" stroke-linejoin="round" stroke-width="29.6862" vectornator:layerName="Curve 5"/>
<g opacity="1" vectornator:layerName="Group 1">
<path d="M186.377 74.2516C187.552 73.664 186.081 74.3603 185.708 74.9201C184.471 76.7752 183.472 78.778 182.366 80.7139C181.342 82.5058 180.354 84.3208 179.246 86.062C174.248 93.9154 168.771 106.386 159.413 110.129C155.543 111.677 151.139 113.906 146.934 114.14C143.598 114.325 140.821 112.699 137.575 112.357C134.395 112.022 131.081 112.049 127.993 111.02C124.555 109.874 122.207 108.005 119.525 105.672C112.561 99.6161 106.931 93.8022 104.818 84.5022C102.331 73.5602 113.785 75.5358 120.416 73.8059C122.235 73.3315 123.937 72.4617 125.764 72.0232C133.731 70.1112 142.359 71.0788 150.277 72.6917C154.05 73.4603 157.229 73.9836 160.527 76.0343C163.87 78.1118 167.61 81.6314 167.881 85.8392C168.344 93.0155 160.698 98.4099 154.511 99.8781C144.068 102.356 132.337 98.1348 123.759 92.3015C120.783 90.2779 115.11 85.7127 116.628 81.1596C118.568 75.3407 127.026 73.4301 132.227 73.583C139.487 73.7966 147.552 77.5331 152.951 82.2738C154.64 83.7573 157.837 86.9031 156.516 89.8503C155.11 92.9871 150.587 93.842 147.826 94.0843C140.014 94.7695 131.82 92.0853 124.873 88.7361C123.072 87.8675 121.3 86.8776 119.748 85.6164C118.45 84.562 116.748 82.1903 117.742 80.2682C119.369 77.123 124.018 74.078 127.102 73.1374C140.142 69.1588 153.582 84.3593 156.071 95.867C156.669 98.6344 157.09 101.525 156.739 104.335C156.479 106.416 155.838 108.716 154.288 110.129C152.996 111.307 150.91 111.176 149.163 111.243C146.999 111.326 144.822 111.006 142.7 110.574C139.43 109.909 136.307 108.659 133.118 107.677" fill="none" opacity="1" stroke="#a3ff87" stroke-linecap="round" stroke-linejoin="round" stroke-width="29.6862" vectornator:layerName="Curve 1"/>
<path d="M203.981 134.418C204.13 133.155 204.881 131.818 204.427 130.63C203.825 129.057 202.751 126.599 201.084 126.842C197.617 127.346 195.029 130.386 192.171 132.413C190.927 133.294 189.906 134.455 188.828 135.532C180.676 143.684 176.144 154.568 172.115 165.17C171.577 166.585 169.888 170.08 170.332 172.078C170.736 173.896 173.077 173.849 174.343 173.415C176.104 172.811 177.729 171.82 179.246 170.741C181.609 169.059 183.925 167.266 185.931 165.17C192.286 158.531 199.691 148.91 204.427 140.881C205.516 139.034 207.146 136.444 205.987 134.641C204.749 132.716 201.048 134.723 199.301 136.201C196.692 138.409 194.429 141.032 192.393 143.777C184.855 153.943 179.023 165.59 175.903 177.872C175.225 180.544 173.883 183.714 175.235 186.117C176.271 187.959 179.831 185.677 181.251 184.111C183.828 181.272 186.038 178.083 187.937 174.752C193.761 164.538 197.845 155.058 200.193 143.555C200.638 141.371 200.484 139.079 200.193 136.869C200.101 136.175 199.779 135.087 199.079 135.087C198.336 135.087 197.932 136.151 197.742 136.869C196.949 139.856 196.598 142.944 196.182 146.006C194.592 157.699 193.921 169.42 193.73 181.214C193.669 185.002 193.616 188.793 193.73 192.579C193.782 194.289 193.843 195.998 193.953 197.705C193.992 198.302 193.663 199.795 194.176 199.487C194.587 199.241 195.342 195.921 195.513 195.253C196.178 192.653 196.842 190.052 197.519 187.454C199.812 178.65 202.044 169.825 203.981 160.936C204.304 159.456 204.34 157.898 204.872 156.479C204.989 156.168 205.273 157.042 205.318 157.371C205.573 159.216 205.613 161.085 205.764 162.942C206.088 166.946 206.323 170.959 206.432 174.975C206.57 180.025 206.595 185.077 206.655 190.128C206.734 196.725 207.376 204.405 205.764 210.852C205.654 211.29 204.666 211.458 204.427 211.075C203.381 209.401 202.921 207.413 202.421 205.504C201.345 201.388 200.603 197.192 199.747 193.025C197.631 182.724 195.964 172.37 193.953 162.05C193.562 160.039 193.106 156.887 190.834 155.811C188.629 154.767 187.594 158.928 187.045 162.05C186.412 165.654 186.189 169.32 185.931 172.969C185.327 181.498 185.611 190.083 184.817 198.596C184.648 200.409 184.399 202.261 183.703 203.944C183.458 204.535 182.685 205.397 182.143 205.058C181.041 204.37 180.569 202.941 180.137 201.716C179.145 198.895 178.648 195.923 177.909 193.025C176.139 186.08 175.353 178.502 172.561 171.855C172.214 171.031 171.404 169.79 170.555 170.072C169.684 170.363 169.963 171.831 169.887 172.747C169.665 175.412 169.664 178.094 169.664 180.769C169.664 188.206 170.16 195.641 170.778 203.053C170.987 205.56 171.293 207.551 171.669 210.184C171.733 210.631 171.981 211.964 171.892 211.521C169.073 197.424 169.815 182.041 169.664 167.844C169.65 166.507 169.28 165.114 169.664 163.833C169.846 163.225 170.174 165.001 170.332 165.616C170.844 167.605 171.213 169.629 171.669 171.632C172.55 175.497 173.447 179.359 174.343 183.22C176.254 191.452 177.881 201.204 181.251 209.069" fill="none" opacity="1" stroke="#87ffeb" stroke-linecap="round" stroke-linejoin="round" stroke-width="29.6862" vectornator:layerName="Curve 2"/>
<path d="M138.072 155.123C138.617 154.967 139.707 154.089 139.707 154.656C139.707 157.818 138.692 160.9 138.072 164.001C135.81 175.308 133.479 186.602 131.063 197.877C130.341 201.243 129.363 205.878 127.325 208.857C126.91 209.464 125.807 210.67 125.456 210.025C123.016 205.552 123.743 200.004 123.587 195.073C123.465 191.256 123.293 187.441 123.119 183.626C122.563 171.39 122.342 159.638 121.017 147.413C120.931 146.624 120.85 145.812 120.549 145.077C120.14 144.076 119.996 142.274 118.914 142.274C117.902 142.274 118.037 144.107 117.746 145.077C117.566 145.678 117.561 146.32 117.512 146.946C117.134 151.775 116.733 156.603 116.344 161.431C115.203 175.62 113.918 189.778 112.606 203.951C112.332 206.907 112.162 209.872 111.905 212.829C111.803 214.001 111.518 217.022 110.27 217.501C109.239 217.898 108.269 215.077 108.167 214.464C107.702 211.672 107.303 208.868 106.999 206.054C106.369 200.222 105.722 194.387 105.364 188.532C104.386 172.529 104.221 157.444 102.56 141.573C102.215 138.276 101.261 135.044 99.9903 131.994C99.9304 131.85 99.5875 131.852 99.5231 131.994C99.0312 133.076 98.6069 135.403 98.5886 136.667C98.5209 141.339 98.6784 146.012 98.5886 150.684C98.2666 167.429 97.5869 180.137 96.7195 196.942C96.5065 201.071 96.442 205.212 96.0187 209.324C95.8949 210.527 96.1138 212.195 95.0842 212.829C94.328 213.294 93.2527 212.039 92.9815 211.194C91.871 207.731 91.5457 204.057 91.1125 200.447C90.3766 194.314 89.9382 188.149 89.4771 181.99C88.4033 167.647 87.505 153.277 85.7391 139.003C85.0372 133.329 84.1635 125.104 80.3657 120.546C80.2161 120.367 80.3567 121.014 80.3657 121.247C80.4346 123.039 80.4618 124.833 80.5993 126.621C80.6956 127.873 80.9543 129.108 81.0665 130.359C81.4995 135.183 81.9089 140.01 82.2347 144.843C83.4094 162.269 83.0054 179.957 82.7019 197.41C82.6586 199.902 82.7047 202.404 82.4683 204.886C82.3912 205.695 82.5742 207.121 81.7674 207.222C80.9718 207.321 80.7841 205.899 80.5993 205.119C79.5879 200.849 79.7738 198.737 79.4312 194.84C77.7694 175.937 75.783 157.181 72.1887 138.536C71.4624 134.768 69.9327 130.003 68.9179 126.621C68.4487 125.056 67.9834 124.029 67.9834 124.284C67.9834 125.582 68.6352 130.553 68.9179 132.228C69.7471 137.138 70.7139 142.026 71.4878 146.946C73.2171 157.939 74.0863 169.051 75.2259 180.121C75.9305 186.966 76.4476 193.829 77.0949 200.68C77.6017 206.044 77.8489 213.976 79.1975 219.37" fill="none" opacity="1" stroke="#db87ff" stroke-linecap="round" stroke-linejoin="round" stroke-width="29.6862" vectornator:layerName="Curve 3"/>
<path d="M114.008 153.254C114.971 161.924 114.516 170.697 114.475 179.42C114.432 188.766 114.316 198.11 114.242 207.455C114.238 207.845 114.318 209.005 114.242 208.624C113.855 206.69 113.424 204.751 113.307 202.783C113.034 198.196 113.139 193.594 113.073 188.999C112.888 175.993 113.37 162.952 112.373 149.983C112.183 147.516 111.52 145.089 110.737 142.741C110.563 142.218 110.49 143.826 110.504 144.376C110.569 147.106 110.786 149.829 110.971 152.553C111.331 157.851 111.846 163.138 112.139 168.44C112.852 181.359 113.516 194.286 113.774 207.222C113.82 209.481 113.984 211.781 113.541 213.997C113.411 214.645 112.621 215.851 112.139 215.399C110.817 214.16 110.269 212.243 109.803 210.493C108.701 206.36 107.955 202.126 107.466 197.877C105.717 182.68 106.504 167.242 104.429 152.086C103.804 147.518 102.042 143.177 100.691 138.769C100.479 138.075 99.7618 137 98.8222 137.134C97.7998 137.28 97.6652 143.417 97.6541 144.376C97.587 150.139 97.6407 155.905 97.4204 161.665C97.0955 170.16 96.59 178.648 96.0187 187.13C95.5775 193.679 94.9998 200.219 94.3833 206.755C94.2209 208.476 94.4226 210.332 93.6824 211.894C93.4588 212.367 92.4501 211.688 92.2806 211.194C91.4583 208.795 91.1561 206.238 90.8789 203.717C90.2983 198.439 89.9898 193.133 89.7107 187.831C88.8253 171.007 89.2306 154.054 86.9072 137.367C86.4011 133.732 85.0998 130.22 83.6364 126.854C83.4476 126.42 82.3126 126.153 82.2347 126.621C81.761 129.463 82.1493 132.385 82.2347 135.265C82.4609 142.9 83.1358 150.522 83.1692 158.16C83.2137 168.364 82.8067 178.567 82.4683 188.765C82.2615 195 81.8863 201.228 81.5338 207.455C81.419 209.483 81.4408 211.534 81.0665 213.53C80.9631 214.082 80.5051 215.351 80.132 214.932C79.3289 214.028 79.2952 212.632 79.1975 211.427C78.826 206.845 78.914 202.237 78.7303 197.643C78.4468 190.555 78.2767 183.46 77.7958 176.383C76.7675 161.252 75.6207 145.949 71.7215 131.293C71.0484 128.763 69.8789 126.38 68.6843 124.051C68.3066 123.314 67.8717 122.273 67.0489 122.182C66.4855 122.119 66.5716 123.25 66.5817 123.817C66.6499 127.639 67.0424 131.449 67.2826 135.265C67.7433 142.585 68.1509 149.91 68.6843 157.226C69.2412 164.863 69.6811 172.514 70.5533 180.121C71.0841 184.751 72.0057 189.33 72.8896 193.905C73.3948 196.521 73.801 199.232 74.9922 201.615" fill="none" opacity="1" stroke="#f253b5" stroke-linecap="round" stroke-linejoin="round" stroke-width="29.6862" vectornator:layerName="Curve 4"/>
<path d="M180.825 77.5589C181.604 77.2474 182.786 75.8742 183.162 76.6244C183.556 77.4124 181.836 77.8001 181.293 78.4934C175.602 85.7489 169.966 93.049 164.471 100.454C162.798 102.709 161.369 105.135 159.799 107.463C157.834 110.377 156.256 112.726 153.491 115.173C152.993 115.614 151.578 116.538 151.622 115.874C151.726 114.31 152.907 113.006 153.725 111.668C155.482 108.793 157.407 106.024 159.332 103.258C165.77 94.0023 172.258 84.7698 178.255 75.2226C178.923 74.1593 179.878 73.1832 180.124 71.9519C180.235 71.4012 179.169 72.546 178.723 72.8864C177.533 73.793 176.287 74.6433 175.218 75.6899C172.542 78.3108 170.03 81.0963 167.509 83.8668C163.721 88.028 159.931 92.1892 156.294 96.4827C153.465 99.8238 150.981 103.45 148.117 106.762C146.477 108.659 144.517 111.613 142.043 111.201C141.557 111.12 141.518 110.289 141.576 109.799C141.836 107.585 142.272 105.373 142.978 103.258C145.856 94.6238 150.36 86.6196 153.958 78.2598C154.669 76.6083 155.782 74.908 155.594 73.12C155.516 72.3853 154.099 73.4014 153.491 73.8209C151.808 74.9814 150.21 76.2955 148.818 77.7925C142.919 84.1374 138.255 91.5825 133.866 99.0526C132.424 101.508 130.91 106.464 127.558 107.93C126.012 108.607 125.835 105.821 126.39 102.791C126.973 99.6129 127.987 96.5262 128.96 93.4455C130.325 89.1243 132.083 84.9324 133.399 80.5961C134.189 77.9931 135.362 75.3712 135.268 72.6527C135.24 71.8514 133.743 73.2652 133.165 73.8209C131.692 75.2377 130.43 76.8654 129.194 78.4934C125.524 83.3273 122.489 88.6127 119.148 93.6792C117.989 95.4356 117.199 98.0073 115.176 98.5853C114.906 98.6625 114.722 98.1649 114.709 97.8844C114.642 96.4821 114.658 95.054 114.942 93.6792C116.247 87.3716 119.137 81.3907 119.849 74.989C119.974 73.8621 119.876 72.3192 118.914 71.7182C118.079 71.1961 116.985 72.1983 116.111 72.6527C115.018 73.2208 114.019 73.9671 113.073 74.7554C108.83 78.2919 105.93 82.9932 101.626 86.4367C101.288 86.7071 97.9013 89.5011 97.1868 88.0721" fill="none" opacity="1" stroke="#ab22af" stroke-linecap="round" stroke-linejoin="round" stroke-width="29.6862" vectornator:layerName="Curve 5"/>
<path d="M213.066 130.826C211.771 143.77 212.392 156.835 212.131 169.842C211.909 180.9 211.794 191.962 211.43 203.017C211.404 203.814 210.803 206.054 210.729 206.054C210.34 206.054 209.859 205.737 209.795 205.353C209.372 202.813 209.407 200.217 209.328 197.643C209.173 192.583 209.22 187.518 209.094 182.457C208.702 166.68 208.515 152.814 206.291 137.134C205.728 133.169 204.638 129.288 203.487 125.452C203.226 124.583 202.936 123.435 202.085 123.116C201.554 122.917 201.63 124.185 201.618 124.752C201.552 127.789 201.774 130.826 201.852 133.863C202.007 139.937 202.252 146.01 202.319 152.086C202.485 167.193 202.312 182.303 202.085 197.41C202.013 202.191 203.354 207.862 200.45 211.661C200.115 212.098 199.035 211.932 198.815 211.427C197.823 209.16 197.533 206.634 197.179 204.185C196.441 199.069 195.997 193.914 195.544 188.765C194.251 174.078 194.121 161.398 191.105 146.946C190.606 144.554 189.639 142.217 188.301 140.171C188.053 139.791 187.268 140.438 187.133 140.872C186.526 142.828 186.364 144.904 186.199 146.946C185.74 152.621 185.51 158.313 185.264 164.001C184.736 176.22 184.451 188.45 184.33 200.68C184.304 203.25 184.527 205.828 184.33 208.39C184.29 208.911 183.936 210.214 183.629 209.792C182.817 208.676 182.666 207.185 182.461 205.82C181.807 201.483 181.495 197.101 181.059 192.737C179.834 180.491 179.174 168.143 176.854 156.058C176.208 152.695 175.088 149.424 173.816 146.245C173.648 145.824 172.877 145.152 172.648 145.544C172.055 146.562 172.232 147.871 172.181 149.049C171.998 153.251 171.98 157.459 171.947 161.665C171.86 172.888 172.222 184.14 173.349 195.307C173.657 198.353 174.326 201.362 174.517 204.418C174.562 205.135 174.768 206.521 174.05 206.521C173.208 206.521 172.871 205.231 172.648 204.418C171.767 201.208 171.439 197.87 170.779 194.606C169.881 190.16 169.13 185.676 167.976 181.289C167.18 178.265 166.674 175.014 164.939 172.411C164.479 171.723 163.494 173.475 163.303 174.28C162.764 176.559 162.97 178.952 162.836 181.289C162.658 184.403 162.524 187.519 162.369 190.634" fill="none" opacity="1" stroke="#ffc847" stroke-linecap="round" stroke-linejoin="round" stroke-width="29.6862" vectornator:layerName="Curve 6"/>
<path d="M115.643 167.973C116.422 164.858 115.161 160.165 117.98 158.627C120.305 157.359 118.246 163.922 118.213 166.571C118.09 176.463 117.721 186.351 117.512 196.241C117.428 200.213 117.482 204.189 117.279 208.156C117.264 208.452 116.653 209.884 116.344 209.792C115.606 209.57 114.974 208.88 114.709 208.156C113.774 205.602 113.257 202.901 112.84 200.213C112.009 194.868 111.575 189.468 110.971 184.093C109.404 170.16 108.029 156.118 104.663 142.507C104.353 141.256 104.278 139.315 103.027 139.003C102.042 138.757 102.731 141.027 102.794 142.04C103.043 146.023 103.582 149.982 103.962 153.955C104.595 160.573 105.436 167.176 105.831 173.813C106.293 181.591 106.386 189.386 106.532 197.176C106.619 201.848 106.707 206.524 106.532 211.194C106.473 212.767 106.739 214.579 105.831 215.866C105.405 216.47 104.367 215.537 103.728 215.165C103.392 214.969 103.181 214.589 103.027 214.231C102.241 212.396 101.441 210.552 100.925 208.624C99.646 203.842 98.5644 199.004 97.6541 194.139C94.6989 178.344 93.2938 162.287 90.4116 146.479C89.4054 140.96 88.019 135.508 86.44 130.125C86.285 129.597 85.3431 128.411 85.2718 128.957C84.9891 131.125 85.5258 133.323 85.7391 135.498C86.3046 141.267 87.1635 147.007 87.6081 152.787C88.8213 168.558 89.0056 184.397 89.2435 200.213C89.288 203.173 89.5978 206.133 89.4771 209.091C89.4409 209.978 89.5524 211.23 88.7762 211.661C88.1986 211.982 87.5834 210.886 87.3745 210.259C86.4663 207.534 86.0147 204.675 85.5055 201.848C84.4566 196.027 83.6313 190.168 82.7019 184.326C80.1372 168.205 78.0119 152.008 74.9922 135.966C73.6248 128.701 72.4875 121.044 68.6843 114.706C68.5399 114.465 67.9756 114.892 67.9834 115.173C68.0575 117.838 68.605 120.469 68.9179 123.116C69.6174 129.035 70.5399 134.931 71.0206 140.872C72.2264 155.773 72.3471 170.333 72.656 185.261C72.7398 189.31 72.8402 193.36 72.8896 197.41C72.9361 201.226 72.8027 205.043 72.656 208.857C72.635 209.402 72.2705 210.878 72.656 210.493C73.1637 209.985 72.9675 209.091 73.1232 208.39" fill="none" opacity="1" stroke="#9cfff5" stroke-linecap="round" stroke-linejoin="round" stroke-width="29.6862" vectornator:layerName="Curve 7"/>
<path d="M181.763 69.6125C181.904 69.8942 182.358 70.1943 182.185 70.4577C177.832 77.0908 173.106 83.4726 168.451 89.8971C162.541 98.053 156.513 106.123 150.491 114.196C150.082 114.744 147.63 117.924 146.476 117.154C145.855 116.741 148.227 113.143 149.646 110.816C151.374 107.978 153.183 105.191 154.928 102.364C159.884 94.3323 165.099 86.4638 170.141 78.487C171.355 76.5671 173.201 74.8192 173.522 72.5707C173.779 70.7713 171.386 75.5127 170.353 77.0079C168.076 80.3023 165.908 83.6721 163.591 86.9389C160.413 91.4207 157.098 95.8039 153.872 100.251C151.323 103.763 148.835 107.319 146.265 110.816C144.922 112.642 142.746 116.074 141.405 115.464C140.814 115.195 140.769 114.176 140.982 113.562C141.934 110.825 143.49 108.336 144.786 105.744C149.308 96.7007 154.155 87.8186 158.52 78.6983C159.842 75.9371 161.218 73.174 162.112 70.2464C162.261 69.7607 161.159 70.6929 160.844 71.0916C159.028 73.3922 157.456 75.8757 155.773 78.2757C148.579 88.5367 141.644 99.0303 134.221 109.125C133.5 110.106 129.519 115.019 128.727 113.14C127.176 109.456 130.214 105.235 131.685 101.518C133.286 97.4751 135.361 93.6362 137.179 89.6858C139.406 84.8459 141.825 80.0821 143.729 75.1062C144.031 74.3169 144.468 72.1602 143.729 72.5707C141.979 73.543 141.135 75.6238 139.926 77.2192C137.824 79.9923 135.811 82.8328 133.798 85.6711C129.695 91.4555 125.814 97.3939 121.754 103.209C120.948 104.364 120.244 105.624 119.219 106.59C117.768 107.955 117.72 104.628 117.951 103.42C118.395 101.101 119.245 98.8733 120.064 96.6586C122.129 91.0763 124.81 85.7008 126.403 79.9661C126.707 78.8718 126.825 77.721 126.825 76.5853C126.825 76.4278 126.514 76.6853 126.403 76.7966C125.833 77.3665 125.773 78.177 125.558 78.9096C125.175 80.209 123.916 82.9727 124.079 83.1355C124.328 83.3846 124.582 82.5871 124.924 82.5017C125.442 82.372 125.893 82.3339 126.403 82.0791" fill="none" opacity="1" stroke="#ab22af" stroke-linecap="round" stroke-linejoin="round" stroke-width="29.6862" vectornator:layerName="Curve 8"/>
<path d="M118.585 142.51C119.128 156.093 119.54 169.717 118.796 183.291C118.245 193.348 116.501 203.306 115.204 213.295C115.023 214.687 115.191 216.682 113.936 217.31C113.621 217.467 113.371 216.81 113.302 216.464C113.011 215.007 113.014 213.507 112.88 212.027C112.803 211.182 112.68 210.34 112.668 209.492C112.609 205.055 112.699 200.617 112.668 196.18C112.545 178.049 113.309 159.599 110.133 141.665C109.845 140.041 110.086 136.88 108.443 137.016C106.804 137.153 107.732 140.238 107.597 141.876C107.238 146.233 107.193 150.611 106.963 154.977C106.63 161.317 106.401 167.664 105.907 173.994C105.074 184.656 103.726 195.272 102.526 205.899C102.162 209.126 101.673 212.416 100.413 215.408C100.161 216.006 99.3772 217.15 98.9341 216.676C97.8703 215.536 97.7082 213.777 97.455 212.238C96.7882 208.186 96.537 204.075 96.1873 199.983C95.6821 194.073 95.3355 188.151 94.9195 182.234C94.4095 174.981 94.0858 167.713 93.4404 160.47C92.543 150.4 92.6139 139.91 89.0031 130.466C88.7645 129.842 88.428 131.702 88.3692 132.368C88.2145 134.122 88.3241 135.89 88.3692 137.65C88.3946 138.639 88.5461 139.621 88.5805 140.609C88.7574 145.679 88.972 150.749 89.0031 155.822C89.0796 168.29 88.8342 180.762 88.3692 193.222C88.2429 196.607 88.0822 199.994 87.7353 203.364C87.5882 204.793 87.1831 206.184 86.8902 207.59C86.885 207.614 86.3702 210.162 85.8337 209.492C85.1506 208.638 85.0832 207.411 84.9885 206.322C84.6588 202.53 84.7361 198.714 84.5659 194.912C84.3135 189.276 84.115 183.636 83.7207 178.008C82.7884 164.702 81.3525 153.104 78.8608 139.975C77.8748 134.779 76.5678 127.269 74.2123 122.014C74.1259 121.822 73.6131 121.806 73.5784 122.014C73.37 123.265 73.5347 124.551 73.5784 125.818C73.6052 126.595 73.7613 127.365 73.7897 128.142C73.9726 133.141 74.1822 138.141 74.2123 143.144C74.3122 159.721 73.567 176.287 72.0993 192.799C71.6559 197.788 70.8596 202.837 70.1976 207.801C69.9633 209.559 68.7706 211.497 69.5637 213.084C69.8177 213.592 70.2294 212.143 70.4089 211.605" fill="none" opacity="1" stroke="#ab22af" stroke-linecap="round" stroke-linejoin="round" stroke-width="29.6862" vectornator:layerName="Curve 9"/>
<path d="M183.031 61.7945C183.101 63.2736 183.847 64.8801 183.242 66.2317C178.069 77.7901 171.95 88.9065 165.915 100.039C162.859 105.678 159.415 111.101 155.984 116.521C155.865 116.709 155.536 116.855 155.351 116.732C154.924 116.447 155.544 115.711 155.773 115.253C156.478 113.844 157.182 112.435 157.886 111.027C159.774 107.251 161.619 103.453 163.38 99.6168C167.517 90.603 171.491 81.3142 174.79 71.9368C175.618 69.5821 177.313 67.2148 176.903 64.7527C176.851 64.44 174.645 67.1791 174.579 67.2882C173.171 69.6133 171.721 71.9125 170.353 74.261C167.987 78.3224 165.718 82.4389 163.38 86.5163C158.078 95.763 153.32 105.292 149.012 115.041C148.349 116.542 147.097 119.261 144.997 118.211C143.723 117.574 144.416 115.408 144.363 113.985C144.236 110.56 145.297 107.186 146.053 103.843C148.552 92.8092 152.446 82.192 154.717 71.0916C155.084 69.2968 156.464 64.9226 155.773 62.851C155.522 62.0989 152.844 65.3273 152.604 65.5978C150.303 68.1866 148.447 71.5159 146.687 74.4723C140.888 84.2157 136.072 94.5536 131.474 104.899C130.515 107.058 129.659 109.303 128.304 111.238C127.731 112.057 126.07 114.377 124.712 113.562C122.189 112.048 123.054 101.681 123.233 99.8281C124.037 91.5222 126.096 83.3651 127.248 75.1062C127.453 73.6347 127.536 72.1487 127.671 70.669C127.763 69.6536 128.106 68.5821 128.091 67.5716M125.609 67.6001C125.148 68.2467 124.786 68.8682 124.712 68.9786C123.664 70.5511 122.95 72.3252 122.177 74.0498C118.864 81.4393 115.09 88.6518 112.246 96.236C112.083 96.6707 109.927 101.838 109.288 101.518C107.39 100.57 108.231 95.5914 108.231 94.123C108.231 85.4008 109.662 76.7345 110.267 68.0416M102.531 68.5231C102.029 69.6579 101.533 70.7951 101.047 71.9368C100.355 73.5622 99.63 75.173 98.9341 76.7966C98.3095 78.254 94.8716 86.9389 93.2291 86.9389C91.7645 86.9389 91.0614 82.8936 90.9048 82.0791C90.6621 80.8169 90.4527 79.5481 90.2709 78.2757C89.8419 75.2724 89.5902 72.1513 89.1088 69.1022M82.6582 69.1755C82.4472 69.8136 82.2428 70.454 82.0303 71.0916C81.4046 72.9687 80.8837 74.8933 80.3399 76.7966" fill="none" opacity="1" stroke="#c2fff9" stroke-linecap="round" stroke-linejoin="round" stroke-width="29.6862" vectornator:layerName="Curve 10"/>
<path d="M72.1974 57.6595C76.2461 121.836 143.905 141.75 143.905 141.75C143.905 141.75 204.211 118.671 212.227 57.6595" fill="none" opacity="1" stroke="#000000" stroke-linecap="butt" stroke-linejoin="round" stroke-width="52.2005" vectornator:layerName="Curve 1"/>
<path d="M143.611 141.75L143.905 225.84" fill="none" opacity="1" stroke="#000000" stroke-linecap="butt" stroke-linejoin="round" stroke-width="52.2005" vectornator:layerName="Curve 2"/>
<path d="M57.576 57.6595L225.609 57.9401L225.924 225.404L57.6309 225.84L57.576 57.6595Z" fill="none" opacity="1" stroke="#000000" stroke-linecap="butt" stroke-linejoin="round" stroke-width="29.6862" vectornator:layerName="Curve 6"/>
</g>
</g>
</svg>
