<?xml version="1.0" encoding="UTF-8" standalone="no"?>
<!DOCTYPE svg PUBLIC "-//W3C//DTD SVG 1.1//EN" "http://www.w3.org/Graphics/SVG/1.1/DTD/svg11.dtd">
<!-- Created with Vectornator (http://vectornator.io/) -->
<svg height="100%" stroke-miterlimit="10" style="fill-rule:nonzero;clip-rule:evenodd;stroke-linecap:round;stroke-linejoin:round;" version="1.1" viewBox="0 0 283.5 283.5" width="100%" xml:space="preserve" xmlns="http://www.w3.org/2000/svg" xmlns:vectornator="http://vectornator.io" xmlns:xlink="http://www.w3.org/1999/xlink">
<defs/>
<g id="Layer-3" vectornator:layerName="Layer 3" visibility="hidden">
<path d="M35.4375 35.4375L248.062 35.4375L248.062 248.062L35.4375 248.062L35.4375 35.4375Z" fill="#ffffff" fill-rule="nonzero" opacity="1" stroke="#ffffff" stroke-linecap="butt" stroke-linejoin="round" stroke-width="21.8847" vectornator:layerName="Rectangle 1"/>
</g>
<clipPath id="ArtboardFrame">
<rect height="283.5" width="283.5" x="0" y="0"/>
</clipPath>
<g clip-path="url(#ArtboardFrame)" id="Layer-1" vectornator:layerName="Layer 1">
<path d="M633.879 305.781" fill="none" opacity="1" stroke="#000000" stroke-linecap="butt" stroke-linejoin="round" stroke-width="29.6862" vectornator:layerName="Curve 1"/>
<path d="M645.401 582.418" fill="none" opacity="1" stroke="#ff4545" stroke-linecap="butt" stroke-linejoin="round" stroke-width="29.6862" vectornator:layerName="Curve 5"/>
<g opacity="1" vectornator:layerName="Group 1">
<path d="M213.066 130.826C211.771 143.77 212.392 156.835 212.131 169.842C211.909 180.9 211.794 191.962 211.43 203.017C211.404 203.814 210.803 206.054 210.729 206.054C210.34 206.054 209.859 205.737 209.795 205.353C209.372 202.813 209.407 200.217 209.328 197.643C209.173 192.583 209.22 187.518 209.094 182.457C208.702 166.68 208.515 152.814 206.291 137.134C205.728 133.169 204.638 129.288 203.487 125.452C203.226 124.583 202.936 123.435 202.085 123.116C201.554 122.917 201.63 124.185 201.618 124.752C201.552 127.789 201.774 130.826 201.852 133.863C202.007 139.937 202.252 146.01 202.319 152.086C202.485 167.193 202.312 182.303 202.085 197.41C202.013 202.191 203.354 207.862 200.45 211.661C200.115 212.098 199.035 211.932 198.815 211.427C197.823 209.16 197.533 206.634 197.179 204.185C196.441 199.069 195.997 193.914 195.544 188.765C194.251 174.078 194.121 161.398 191.105 146.946C190.606 144.554 189.639 142.217 188.301 140.171C188.053 139.791 187.268 140.438 187.133 140.872C186.526 142.828 186.364 144.904 186.199 146.946C185.74 152.621 185.51 158.313 185.264 164.001C184.736 176.22 184.451 188.45 184.33 200.68C184.304 203.25 184.527 205.828 184.33 208.39C184.29 208.911 183.936 210.214 183.629 209.792C182.817 208.676 182.666 207.185 182.461 205.82C181.807 201.483 181.495 197.101 181.059 192.737C179.834 180.491 179.174 168.143 176.854 156.058C176.208 152.695 175.088 149.424 173.816 146.245C173.648 145.824 172.877 145.152 172.648 145.544C172.055 146.562 172.232 147.871 172.181 149.049C171.998 153.251 171.98 157.459 171.947 161.665C171.86 172.888 172.222 184.14 173.349 195.307C173.657 198.353 174.326 201.362 174.517 204.418C174.562 205.135 174.768 206.521 174.05 206.521C173.208 206.521 172.871 205.231 172.648 204.418C171.767 201.208 171.439 197.87 170.779 194.606C169.881 190.16 169.13 185.676 167.976 181.289C167.18 178.265 166.674 175.014 164.939 172.411C164.479 171.723 163.494 173.475 163.303 174.28C162.764 176.559 162.97 178.952 162.836 181.289C162.658 184.403 162.524 187.519 162.369 190.634" fill="none" opacity="1" stroke="#ffc847" stroke-linecap="round" stroke-linejoin="round" stroke-width="29.6862" vectornator:layerName="Curve 6"/>
<path d="M118.585 142.51C119.128 156.093 119.54 169.717 118.796 183.291C118.245 193.348 116.501 203.306 115.204 213.295C115.023 214.687 115.191 216.682 113.936 217.31C113.621 217.467 113.371 216.81 113.302 216.464C113.011 215.007 113.014 213.507 112.88 212.027C112.803 211.182 112.68 210.34 112.668 209.492C112.609 205.055 112.699 200.617 112.668 196.18C112.545 178.049 113.309 159.599 110.133 141.665C109.845 140.041 110.086 136.88 108.443 137.016C106.804 137.153 107.732 140.238 107.597 141.876C107.238 146.233 107.193 150.611 106.963 154.977C106.63 161.317 106.401 167.664 105.907 173.994C105.074 184.656 103.726 195.272 102.526 205.899C102.162 209.126 101.673 212.416 100.413 215.408C100.161 216.006 99.3772 217.15 98.9341 216.676C97.8703 215.536 97.7082 213.777 97.455 212.238C96.7882 208.186 96.537 204.075 96.1873 199.983C95.6821 194.073 95.3355 188.151 94.9195 182.234C94.4095 174.981 94.0858 167.713 93.4404 160.47C92.543 150.4 92.6139 139.91 89.0031 130.466C88.7645 129.842 88.428 131.702 88.3692 132.368C88.2145 134.122 88.3241 135.89 88.3692 137.65C88.3946 138.639 88.5461 139.621 88.5805 140.609C88.7574 145.679 88.972 150.749 89.0031 155.822C89.0796 168.29 88.8342 180.762 88.3692 193.222C88.2429 196.607 88.0822 199.994 87.7353 203.364C87.5882 204.793 87.1831 206.184 86.8902 207.59C86.885 207.614 86.3702 210.162 85.8337 209.492C85.1506 208.638 85.0832 207.411 84.9885 206.322C84.6588 202.53 84.7361 198.714 84.5659 194.912C84.3135 189.276 84.115 183.636 83.7207 178.008C82.7884 164.702 81.3525 153.104 78.8608 139.975C77.8748 134.779 76.5678 127.269 74.2123 122.014C74.1259 121.822 73.6131 121.806 73.5784 122.014C73.37 123.265 73.5347 124.551 73.5784 125.818C73.6052 126.595 73.7613 127.365 73.7897 128.142C73.9726 133.141 74.1822 138.141 74.2123 143.144C74.3122 159.721 73.567 176.287 72.0993 192.799C71.6559 197.788 70.8596 202.837 70.1976 207.801C69.9633 209.559 68.7706 211.497 69.5637 213.084C69.8177 213.592 70.2294 212.143 70.4089 211.605" fill="none" opacity="1" stroke="#ab22af" stroke-linecap="round" stroke-linejoin="round" stroke-width="29.6862" vectornator:layerName="Curve 9"/>
<path d="M183.031 61.7945C183.101 63.2736 183.847 64.8801 183.242 66.2317C178.069 77.7901 171.95 88.9065 165.915 100.039C162.859 105.678 159.415 111.101 155.984 116.521C155.865 116.709 155.536 116.855 155.351 116.732C154.924 116.447 155.544 115.711 155.773 115.253C156.478 113.844 157.182 112.435 157.886 111.027C159.774 107.251 161.619 103.453 163.38 99.6168C167.517 90.603 171.491 81.3142 174.79 71.9368C175.618 69.5821 177.313 67.2148 176.903 64.7527C176.851 64.44 174.645 67.1791 174.579 67.2882C173.171 69.6133 171.721 71.9125 170.353 74.261C167.987 78.3224 165.718 82.4389 163.38 86.5163C158.078 95.763 153.32 105.292 149.012 115.041C148.349 116.542 147.097 119.261 144.997 118.211C143.723 117.574 144.416 115.408 144.363 113.985C144.236 110.56 145.297 107.186 146.053 103.843C148.552 92.8092 152.446 82.192 154.717 71.0916C155.084 69.2968 156.464 64.9226 155.773 62.851C155.522 62.0989 152.844 65.3273 152.604 65.5978C150.303 68.1866 148.447 71.5159 146.687 74.4723C140.888 84.2157 136.072 94.5536 131.474 104.899C130.515 107.058 129.659 109.303 128.304 111.238C127.731 112.057 126.07 114.377 124.712 113.562C122.189 112.048 123.054 101.681 123.233 99.8281C124.037 91.5222 126.096 83.3651 127.248 75.1062C127.453 73.6347 127.536 72.1487 127.671 70.669C127.763 69.6536 128.106 68.5821 128.091 67.5716M125.609 67.6001C125.148 68.2467 124.786 68.8682 124.712 68.9786C123.664 70.5511 122.95 72.3252 122.177 74.0498C118.864 81.4393 115.09 88.6518 112.246 96.236C112.083 96.6707 109.927 101.838 109.288 101.518C107.39 100.57 108.231 95.5914 108.231 94.123C108.231 85.4008 109.662 76.7345 110.267 68.0416M102.531 68.5231C102.029 69.6579 101.533 70.7951 101.047 71.9368C100.355 73.5622 99.63 75.173 98.9341 76.7966C98.3095 78.254 94.8716 86.9389 93.2291 86.9389C91.7645 86.9389 91.0614 82.8936 90.9048 82.0791C90.6621 80.8169 90.4527 79.5481 90.2709 78.2757C89.8419 75.2724 89.5902 72.1513 89.1088 69.1022M82.6582 69.1755C82.4472 69.8136 82.2428 70.454 82.0303 71.0916C81.4046 72.9687 80.8837 74.8933 80.3399 76.7966" fill="none" opacity="1" stroke="#6ffffc" stroke-linecap="round" stroke-linejoin="round" stroke-width="29.6862" vectornator:layerName="Curve 10"/>
<path d="M72.1974 57.6595C76.2461 121.836 143.905 141.75 143.905 141.75C143.905 141.75 204.211 118.671 212.227 57.6595" fill="none" opacity="1" stroke="#ffffff" stroke-linecap="butt" stroke-linejoin="round" stroke-width="52.2005" vectornator:layerName="Curve 1"/>
<path d="M143.611 141.75L143.905 225.84" fill="none" opacity="1" stroke="#ffffff" stroke-linecap="butt" stroke-linejoin="round" stroke-width="52.2005" vectornator:layerName="Curve 2"/>
<path d="M57.576 57.6595L225.609 57.9401L225.924 225.404L57.6309 225.84L57.576 57.6595Z" fill="none" opacity="1" stroke="#ffffff" stroke-linecap="butt" stroke-linejoin="round" stroke-width="29.6862" vectornator:layerName="Curve 6"/>
</g>
</g>
</svg>
